<svg width="100" height="100" viewBox="0 0 100 100" fill="none" xmlns="http://www.w3.org/2000/svg">
<path d="M0 0H100V100H0V0Z" fill="white"/>
<path d="M14.845 44.83C14.845 44.88 14.835 45.01 14.815 45.22C14.805 45.43 14.8 45.69 14.8 46C14.8 46.28 14.815 46.66 14.845 47.14C14.845 47.41 14.67 47.545 14.32 47.545H11.68L11.65 49.09C11.64 49.26 11.635 49.685 11.635 50.365C11.635 51.065 11.64 51.745 11.65 52.405C11.66 53.065 11.665 53.635 11.665 54.115L11.68 54.73V54.805C11.68 54.895 11.665 54.95 11.635 54.97C11.615 54.99 11.585 55 11.545 55C11.505 55 11.475 55 11.455 55H10.435C10.315 55 10.245 54.98 10.225 54.94C10.205 54.9 10.195 54.83 10.195 54.73C10.195 54.62 10.195 54.54 10.195 54.49L10.255 52.63C10.315 51.01 10.345 49.97 10.345 49.51C10.345 49.25 10.335 48.86 10.315 48.34L10.3 47.545C9.58 47.545 8.85 47.555 8.11 47.575L7.645 47.59C7.515 47.59 7.425 47.555 7.375 47.485C7.325 47.415 7.315 47.335 7.345 47.245L7.36 46.87C7.38 46.29 7.39 45.755 7.39 45.265C7.39 45.025 7.385 44.88 7.375 44.83V44.725C7.375 44.615 7.395 44.55 7.435 44.53C7.485 44.51 7.555 44.5 7.645 44.5H9.13L9.97 44.485C10.49 44.465 10.855 44.455 11.065 44.455L11.965 44.47C12.685 44.49 13.25 44.5 13.66 44.5C13.96 44.5 14.155 44.495 14.245 44.485C14.465 44.475 14.62 44.51 14.71 44.59C14.8 44.66 14.845 44.74 14.845 44.83Z" fill="black"/>
<path d="M23.6799 54.7C23.7299 54.8 23.7549 54.865 23.7549 54.895C23.7549 54.975 23.6649 55.015 23.4849 55.015H22.4049C22.3649 55.015 22.3249 54.98 22.2849 54.91C22.2449 54.84 22.2099 54.77 22.1799 54.7C22.1499 54.63 22.1249 54.57 22.1049 54.52C22.0549 54.42 21.9599 54.19 21.8199 53.83C21.6899 53.47 21.5899 53.185 21.5199 52.975C21.4899 52.875 21.4299 52.73 21.3399 52.54C21.2499 52.34 21.1849 52.2 21.1449 52.12C21.1049 52 21.0649 51.92 21.0249 51.88C20.9949 51.84 20.9449 51.82 20.8749 51.82C20.8049 51.82 20.7149 51.825 20.6049 51.835C20.5049 51.845 20.3949 51.855 20.2749 51.865C20.1949 51.885 19.9449 51.895 19.5249 51.895C19.2349 51.895 18.9499 51.905 18.6699 51.925C18.5799 51.935 18.4199 51.94 18.1899 51.94L17.3949 51.925C17.3449 51.925 17.3049 51.945 17.2749 51.985C17.2549 52.025 17.2399 52.075 17.2299 52.135C17.2199 52.185 17.2099 52.225 17.1999 52.255L17.1099 52.63C17.0799 52.77 17.0399 52.935 16.9899 53.125C16.9499 53.305 16.9149 53.475 16.8849 53.635L16.7199 54.28L16.5999 54.715C16.5699 54.835 16.5399 54.915 16.5099 54.955C16.4899 54.985 16.4549 55 16.4049 55H15.5199C15.4699 55 15.4449 54.98 15.4449 54.94C15.4449 54.92 15.4649 54.85 15.5049 54.73C15.5849 54.54 15.6549 54.35 15.7149 54.16C16.0849 52.92 16.3049 52.11 16.3749 51.73C16.4649 51.23 16.6499 50.585 16.9299 49.795C17.0199 49.455 17.1049 49.145 17.1849 48.865C17.2149 48.725 17.2599 48.555 17.3199 48.355C17.5099 47.655 17.6999 47 17.8899 46.39L18.2649 45.19C18.3449 44.88 18.4449 44.56 18.5649 44.23C18.6249 44.08 18.6949 44.045 18.7749 44.125C18.8349 44.165 18.8799 44.235 18.9099 44.335C18.9399 44.435 18.9599 44.505 18.9699 44.545C18.9999 44.665 19.2649 45.265 19.7649 46.345C19.9649 46.755 20.1799 47.29 20.4099 47.95C20.5099 48.24 20.7849 48.865 21.2349 49.825C21.4649 50.295 21.6149 50.62 21.6849 50.8C21.8449 51.15 22.2749 52 22.9749 53.35L23.1549 53.725C23.3849 54.235 23.5599 54.56 23.6799 54.7ZM19.7499 49.75C19.8199 49.74 19.8799 49.735 19.9299 49.735C19.9799 49.735 20.0199 49.73 20.0499 49.72C20.0799 49.71 20.0949 49.695 20.0949 49.675C20.0949 49.655 20.0799 49.615 20.0499 49.555C19.9999 49.465 19.8849 49.215 19.7049 48.805C19.5249 48.385 19.3999 48.07 19.3299 47.86C19.2299 47.62 19.1499 47.42 19.0899 47.26C19.0399 47.1 18.9999 46.99 18.9699 46.93C18.9499 46.88 18.9249 46.83 18.8949 46.78C18.8749 46.73 18.8549 46.69 18.8349 46.66C18.8149 46.63 18.7949 46.615 18.7749 46.615C18.7449 46.615 18.7099 46.69 18.6699 46.84C18.6399 46.99 18.6149 47.105 18.5949 47.185C18.4149 47.765 18.2849 48.205 18.2049 48.505C18.1649 48.655 18.1049 48.84 18.0249 49.06C17.9549 49.27 17.9049 49.415 17.8749 49.495C17.8449 49.595 17.8299 49.675 17.8299 49.735C17.8299 49.795 17.8749 49.825 17.9649 49.825C18.1749 49.825 18.4949 49.82 18.9249 49.81C19.3649 49.79 19.6399 49.77 19.7499 49.75Z" fill="black"/>
<path d="M26.8596 44.635C26.9596 44.635 27.0246 44.655 27.0546 44.695C27.0846 44.725 27.0996 44.775 27.0996 44.845C27.0996 44.885 27.0996 44.96 27.0996 45.07C27.1096 45.17 27.1146 45.34 27.1146 45.58C27.1146 45.67 27.1046 45.82 27.0846 46.03C27.0646 46.24 27.0496 46.415 27.0396 46.555C26.9796 47.115 26.9496 47.48 26.9496 47.65V48.64C26.9496 48.91 26.9546 49.12 26.9646 49.27C27.1046 49.12 27.2246 48.97 27.3246 48.82L27.8796 48.1C28.1196 47.79 28.4046 47.405 28.7346 46.945C29.0646 46.485 29.3196 46.125 29.4996 45.865C29.5096 45.855 29.6046 45.735 29.7846 45.505C29.8146 45.465 29.9096 45.35 30.0696 45.16C30.2296 44.96 30.3246 44.81 30.3546 44.71C30.3846 44.62 30.4246 44.565 30.4746 44.545C30.5346 44.525 30.5946 44.515 30.6546 44.515C30.7146 44.505 30.7596 44.5 30.7896 44.5C30.8996 44.5 31.0096 44.495 31.1196 44.485C31.2296 44.475 31.3296 44.465 31.4196 44.455H31.4796C31.6596 44.455 31.7496 44.49 31.7496 44.56C31.7496 44.6 31.7246 44.645 31.6746 44.695C31.6346 44.735 31.6096 44.76 31.5996 44.77C31.4496 44.94 31.2246 45.21 30.9246 45.58C30.6246 45.94 30.3646 46.26 30.1446 46.54C29.9146 46.87 29.5896 47.315 29.1696 47.875C28.7596 48.435 28.5046 48.775 28.4046 48.895C28.3046 49.015 28.1496 49.245 27.9396 49.585C27.7396 49.925 27.6396 50.115 27.6396 50.155C27.6396 50.205 27.6846 50.275 27.7746 50.365C27.8746 50.455 27.9596 50.535 28.0296 50.605C28.1196 50.715 28.2946 50.91 28.5546 51.19C28.8146 51.46 29.0196 51.67 29.1696 51.82L29.4846 52.165C30.0846 52.845 30.5046 53.29 30.7446 53.5C31.0046 53.74 31.2846 54.025 31.5846 54.355C31.8946 54.675 32.0746 54.86 32.1246 54.91L32.1546 54.97C32.1546 55.01 32.1196 55.04 32.0496 55.06C31.9896 55.09 31.9246 55.095 31.8546 55.075L31.3746 55.09L30.6096 55.12C30.3596 55.13 30.1646 55.075 30.0246 54.955C29.9946 54.925 29.9196 54.855 29.7996 54.745C29.6896 54.635 29.5796 54.52 29.4696 54.4C29.1696 54.08 28.8246 53.725 28.4346 53.335C28.3246 53.225 28.1946 53.11 28.0446 52.99L27.5796 52.57L27.0096 52.09V53.35C27.0096 53.57 27.0246 53.825 27.0546 54.115L27.0846 54.79C27.0846 54.89 27.0646 54.95 27.0246 54.97C26.9846 54.99 26.9396 55 26.8896 55C26.8496 55 26.8196 55 26.7996 55L26.4996 54.985L26.0046 54.955L25.3446 54.985L24.8496 55C24.7796 55 24.7346 54.98 24.7146 54.94C24.7046 54.9 24.6996 54.805 24.6996 54.655L24.6846 50.98V49.57C24.6846 48.38 24.6746 47.675 24.6546 47.455C24.6446 47.335 24.6396 47.145 24.6396 46.885L24.6546 45.895L24.6696 44.71C24.6696 44.62 24.7196 44.575 24.8196 44.575C24.8796 44.575 24.9346 44.585 24.9846 44.605C25.0446 44.615 25.0996 44.62 25.1496 44.62L26.8596 44.635Z" fill="black"/>
<path d="M39.8884 46.045C39.8884 46.245 39.8734 46.43 39.8434 46.6C39.8334 46.75 39.7634 46.825 39.6334 46.825C39.5934 46.825 39.5384 46.815 39.4684 46.795C39.3984 46.775 39.3434 46.76 39.3034 46.75C39.1534 46.72 38.7184 46.705 37.9984 46.705L37.4284 46.69C37.2984 46.68 37.1084 46.675 36.8584 46.675C36.6784 46.675 36.5434 46.68 36.4534 46.69C36.1534 46.71 35.8884 46.72 35.6584 46.72L34.8634 46.705C34.7834 46.705 34.7384 46.725 34.7284 46.765C34.7184 46.795 34.7134 46.875 34.7134 47.005C34.7134 47.185 34.7084 47.34 34.6984 47.47C34.6784 47.87 34.6684 48.195 34.6684 48.445V49.33C34.6684 49.54 34.6734 49.7 34.6834 49.81C34.7634 49.82 34.8984 49.825 35.0884 49.825C35.2584 49.835 35.6084 49.84 36.1384 49.84C36.3584 49.84 36.6784 49.83 37.0984 49.81C37.4184 49.79 37.6284 49.78 37.7284 49.78C37.8684 49.78 38.0084 49.79 38.1484 49.81C38.2884 49.82 38.3934 49.825 38.4634 49.825C38.5934 49.825 38.6584 49.885 38.6584 50.005C38.6584 50.045 38.6534 50.105 38.6434 50.185C38.6334 50.255 38.6284 50.35 38.6284 50.47L38.6434 51.265C38.6434 51.355 38.6334 51.42 38.6134 51.46C38.5934 51.49 38.5584 51.505 38.5084 51.505C38.4784 51.505 38.4334 51.5 38.3734 51.49C38.3234 51.47 38.2784 51.46 38.2384 51.46C38.1484 51.46 37.9784 51.455 37.7284 51.445C37.4884 51.435 37.1584 51.43 36.7384 51.43C36.2884 51.43 35.8984 51.45 35.5684 51.49C35.2384 51.53 35.0384 51.55 34.9684 51.55C34.8584 51.55 34.7934 51.545 34.7734 51.535C34.7234 51.535 34.6934 51.53 34.6834 51.52V53.02C34.7534 53.02 34.8084 53.015 34.8484 53.005L35.2684 52.99L37.0384 52.975C37.3984 52.975 37.6834 52.98 37.8934 52.99L38.9284 53.005L39.5584 52.99C39.6784 52.99 39.7584 53.02 39.7984 53.08C39.8384 53.13 39.8584 53.205 39.8584 53.305L39.8434 53.605L39.8284 54.655C39.8284 54.815 39.7934 54.915 39.7234 54.955C39.6534 54.985 39.5534 55 39.4234 55C39.2934 54.99 39.1884 54.985 39.1084 54.985C38.6784 54.985 38.3084 54.98 37.9984 54.97L36.4684 54.955C36.3484 54.955 35.7484 54.97 34.6684 55L34.0984 55.015L34.0084 55.03C33.9484 55.03 33.9134 55.015 33.9034 54.985C33.8934 54.945 33.8884 54.875 33.8884 54.775C33.8784 54.665 33.8734 54.48 33.8734 54.22C33.8734 54.14 33.8684 54.055 33.8584 53.965C33.8484 53.865 33.8434 53.735 33.8434 53.575V51.52C33.8434 51.32 33.8484 51.125 33.8584 50.935C33.8784 50.745 33.8884 50.605 33.8884 50.515C33.9284 50.055 33.9484 49.615 33.9484 49.195C33.9484 48.675 33.9334 48.265 33.9034 47.965C33.8834 47.625 33.8734 47.315 33.8734 47.035C33.8734 46.405 33.8884 45.67 33.9184 44.83C33.9184 44.7 33.9434 44.615 33.9934 44.575C34.0434 44.525 34.1134 44.5 34.2034 44.5L34.4284 44.515C34.5184 44.515 34.6634 44.525 34.8634 44.545C35.0634 44.555 35.3084 44.56 35.5984 44.56C35.9284 44.56 36.3184 44.535 36.7684 44.485C37.3084 44.445 37.6684 44.425 37.8484 44.425C38.2584 44.425 38.6334 44.44 38.9734 44.47L39.5134 44.485C39.6434 44.485 39.7284 44.515 39.7684 44.575C39.8084 44.635 39.8284 44.745 39.8284 44.905C39.8284 44.995 39.8384 45.15 39.8584 45.37C39.8784 45.63 39.8884 45.855 39.8884 46.045Z" fill="black"/>
<path d="M44.7993 44.245C45.7493 44.245 46.5293 44.435 47.1393 44.815C47.7593 45.185 48.2393 45.54 48.5793 45.88C48.6193 45.92 48.6393 45.965 48.6393 46.015C48.6393 46.045 48.6243 46.085 48.5943 46.135C48.5743 46.175 48.5593 46.205 48.5493 46.225C48.4993 46.295 48.4143 46.42 48.2943 46.6C48.1843 46.77 48.0943 46.895 48.0243 46.975C47.9943 47.015 47.9593 47.06 47.9193 47.11C47.8893 47.15 47.8593 47.18 47.8293 47.2C47.8093 47.22 47.7743 47.23 47.7243 47.23C47.7043 47.23 47.6543 47.2 47.5743 47.14C47.5043 47.07 47.4343 47.01 47.3643 46.96C46.9643 46.61 46.5743 46.31 46.1943 46.06C45.8143 45.81 45.4493 45.685 45.0993 45.685C44.8193 45.685 44.5893 45.75 44.4093 45.88C44.2293 46 44.1393 46.28 44.1393 46.72C44.1393 47.15 44.2993 47.485 44.6193 47.725C44.9393 47.965 45.3643 48.195 45.8943 48.415C45.9443 48.435 46.2343 48.56 46.7643 48.79C47.3043 49.02 47.7793 49.46 48.1893 50.11C48.6093 50.76 48.8193 51.535 48.8193 52.435C48.8193 53.395 48.4593 54.115 47.7393 54.595C47.0193 55.075 46.0243 55.315 44.7543 55.315C43.3143 55.315 42.3993 55.04 42.0093 54.49C41.6193 53.93 41.4143 53.64 41.3943 53.62C41.3543 53.57 41.3343 53.52 41.3343 53.47C41.3343 53.44 41.3743 53.375 41.4543 53.275C41.5843 53.095 41.7743 52.88 42.0243 52.63C42.0643 52.59 42.1043 52.57 42.1443 52.57C42.1943 52.57 42.2493 52.61 42.3093 52.69C42.3693 52.76 42.4193 52.815 42.4593 52.855C43.0493 53.445 43.7193 53.74 44.4693 53.74C44.8493 53.74 45.1793 53.67 45.4593 53.53C45.7393 53.38 45.8793 53.105 45.8793 52.705C45.8793 52.015 45.3343 51.28 44.2443 50.5C44.0643 50.38 43.8943 50.28 43.7343 50.2C43.3143 49.97 42.9543 49.745 42.6543 49.525C42.3543 49.305 42.0893 49.015 41.8593 48.655C41.6293 48.295 41.5143 47.875 41.5143 47.395C41.5143 46.795 41.6993 46.255 42.0693 45.775C42.4493 45.295 42.8993 44.92 43.4193 44.65C43.9493 44.38 44.4093 44.245 44.7993 44.245Z" fill="black"/>
<path d="M54.5669 45.655C54.5669 45.035 54.5719 44.65 54.5819 44.5C54.5819 44.31 54.6469 44.195 54.7769 44.155C54.9069 44.115 55.0969 44.095 55.3469 44.095C55.5669 44.095 55.8469 44.085 56.1869 44.065C56.5369 44.035 56.8069 44.005 56.9969 43.975C57.1369 43.965 57.2369 43.99 57.2969 44.05C57.3569 44.1 57.3869 44.19 57.3869 44.32C57.3869 44.36 57.3769 44.47 57.3569 44.65C57.3369 44.8 57.3269 45.795 57.3269 47.635V51.025C57.3269 51.535 57.3319 52.1 57.3419 52.72C57.3619 53.33 57.3819 53.88 57.4019 54.37C57.4219 54.86 57.4319 54.995 57.4319 54.775C57.4319 54.935 57.3519 55.015 57.1919 55.015C57.1219 55.015 57.0619 55.01 57.0119 55C56.9719 54.99 56.8919 54.985 56.7719 54.985C56.6519 54.985 56.4619 54.995 56.2019 55.015C55.9219 55.035 55.7269 55.045 55.6169 55.045C55.4269 55.045 55.2819 55.005 55.1819 54.925C55.0919 54.845 54.9969 54.7 54.8969 54.49L54.6419 53.98C54.3419 53.31 54.0769 52.785 53.8469 52.405C53.7169 52.185 53.3869 51.58 52.8569 50.59L52.1969 49.345V50.26C52.1969 50.34 52.1919 50.44 52.1819 50.56C52.1819 50.68 52.1869 50.815 52.1969 50.965C52.1969 51.485 52.2019 52.165 52.2119 53.005C52.2319 53.845 52.2569 54.35 52.2869 54.52C52.2969 54.57 52.3019 54.63 52.3019 54.7C52.3019 54.8 52.2819 54.865 52.2419 54.895C52.2019 54.915 52.1269 54.92 52.0169 54.91C51.8569 54.91 51.6669 54.92 51.4469 54.94C51.2369 54.96 51.0369 54.98 50.8469 55C50.6969 55.02 50.5969 54.995 50.5469 54.925C50.5069 54.855 50.4919 54.7 50.5019 54.46C50.5019 54.1 50.4869 53.465 50.4569 52.555C50.4169 51.605 50.3919 50.78 50.3819 50.08C50.3819 49.37 50.3969 48.65 50.4269 47.92C50.4469 47 50.4569 46.37 50.4569 46.03C50.4569 45.57 50.4419 45.235 50.4119 45.025C50.3919 44.845 50.3819 44.73 50.3819 44.68C50.3819 44.5 50.4119 44.38 50.4719 44.32C50.5319 44.25 50.6119 44.215 50.7119 44.215C50.7619 44.215 50.8619 44.22 51.0119 44.23C51.1619 44.23 51.3769 44.195 51.6569 44.125C51.7669 44.105 51.8769 44.095 51.9869 44.095C52.0469 44.095 52.1319 44.1 52.2419 44.11C52.3519 44.12 52.4969 44.125 52.6769 44.125C52.9069 44.125 53.0969 44.215 53.2469 44.395C53.4069 44.575 53.5769 44.83 53.7569 45.16L53.9069 45.43C54.0269 45.65 54.1719 45.885 54.3419 46.135L54.5669 46.48V45.655Z" fill="black"/>
<path d="M64.9271 44.53C65.5271 44.93 66.0071 45.47 66.3671 46.15C66.7371 46.83 66.9921 47.495 67.1321 48.145C67.2821 48.785 67.3571 49.29 67.3571 49.66C67.3571 50.28 67.2571 51 67.0571 51.82C66.8671 52.64 66.4521 53.405 65.8121 54.115C65.1721 54.815 64.2471 55.165 63.0371 55.165C61.3771 55.165 60.1971 54.2 59.4971 52.27C59.1871 51.4 59.0121 50.43 58.9721 49.36C58.9721 48.48 59.1571 47.645 59.5271 46.855C59.8971 46.055 60.3821 45.415 60.9821 44.935C61.5921 44.455 62.2171 44.215 62.8571 44.215C63.4371 44.215 63.8671 44.23 64.1471 44.26C64.4371 44.29 64.6971 44.38 64.9271 44.53ZM62.9621 54.325C64.0221 54.325 64.8121 53.885 65.3321 53.005C65.8521 52.115 66.1121 51 66.1121 49.66C66.1121 48.84 65.9871 48.085 65.7371 47.395C65.4971 46.695 65.1521 46.14 64.7021 45.73C64.2621 45.31 63.7521 45.1 63.1721 45.1C63.1221 45.1 62.9871 45.1 62.7671 45.1C62.5571 45.1 62.3721 45.135 62.2121 45.205C62.0521 45.275 61.9071 45.38 61.7771 45.52C61.4471 45.85 61.1671 46.155 60.9371 46.435C60.7171 46.705 60.4921 47.11 60.2621 47.65C60.0421 48.19 59.9321 48.815 59.9321 49.525C59.9321 50.365 60.0321 51.15 60.2321 51.88C60.4421 52.6 60.7721 53.19 61.2221 53.65C61.6721 54.1 62.2521 54.325 62.9621 54.325Z" fill="black"/>
<path d="M75.7971 44.83C75.7971 44.88 75.7872 45.01 75.7672 45.22C75.7572 45.43 75.7522 45.69 75.7522 46C75.7522 46.28 75.7672 46.66 75.7971 47.14C75.7971 47.41 75.6221 47.545 75.2721 47.545H72.6321L72.6021 49.09C72.5922 49.26 72.5872 49.685 72.5872 50.365C72.5872 51.065 72.5922 51.745 72.6021 52.405C72.6122 53.065 72.6171 53.635 72.6171 54.115L72.6321 54.73V54.805C72.6321 54.895 72.6172 54.95 72.5872 54.97C72.5672 54.99 72.5371 55 72.4971 55C72.4571 55 72.4272 55 72.4072 55H71.3871C71.2671 55 71.1971 54.98 71.1771 54.94C71.1571 54.9 71.1471 54.83 71.1471 54.73C71.1471 54.62 71.1471 54.54 71.1471 54.49L71.2071 52.63C71.2671 51.01 71.2971 49.97 71.2971 49.51C71.2971 49.25 71.2872 48.86 71.2672 48.34L71.2522 47.545C70.5322 47.545 69.8021 47.555 69.0621 47.575L68.5971 47.59C68.4671 47.59 68.3771 47.555 68.3271 47.485C68.2771 47.415 68.2671 47.335 68.2971 47.245L68.3121 46.87C68.3321 46.29 68.3421 45.755 68.3421 45.265C68.3421 45.025 68.3371 44.88 68.3271 44.83V44.725C68.3271 44.615 68.3471 44.55 68.3871 44.53C68.4371 44.51 68.5071 44.5 68.5971 44.5H70.0821L70.9221 44.485C71.4421 44.465 71.8072 44.455 72.0172 44.455L72.9172 44.47C73.6372 44.49 74.2022 44.5 74.6122 44.5C74.9122 44.5 75.1072 44.495 75.1972 44.485C75.4172 44.475 75.5721 44.51 75.6621 44.59C75.7521 44.66 75.7971 44.74 75.7971 44.83Z" fill="black"/>
<path d="M83.072 46.045C83.072 46.245 83.057 46.43 83.027 46.6C83.017 46.75 82.947 46.825 82.817 46.825C82.777 46.825 82.722 46.815 82.652 46.795C82.582 46.775 82.527 46.76 82.487 46.75C82.337 46.72 81.902 46.705 81.182 46.705L80.612 46.69C80.482 46.68 80.292 46.675 80.042 46.675C79.862 46.675 79.727 46.68 79.637 46.69C79.337 46.71 79.072 46.72 78.842 46.72L78.047 46.705C77.967 46.705 77.922 46.725 77.912 46.765C77.902 46.795 77.897 46.875 77.897 47.005C77.897 47.185 77.892 47.34 77.882 47.47C77.862 47.87 77.852 48.195 77.852 48.445V49.33C77.852 49.54 77.857 49.7 77.867 49.81C77.947 49.82 78.082 49.825 78.272 49.825C78.442 49.835 78.792 49.84 79.322 49.84C79.542 49.84 79.862 49.83 80.282 49.81C80.602 49.79 80.812 49.78 80.912 49.78C81.052 49.78 81.192 49.79 81.332 49.81C81.472 49.82 81.577 49.825 81.647 49.825C81.777 49.825 81.842 49.885 81.842 50.005C81.842 50.045 81.837 50.105 81.827 50.185C81.817 50.255 81.812 50.35 81.812 50.47L81.827 51.265C81.827 51.355 81.817 51.42 81.797 51.46C81.777 51.49 81.742 51.505 81.692 51.505C81.662 51.505 81.617 51.5 81.557 51.49C81.507 51.47 81.462 51.46 81.422 51.46C81.332 51.46 81.162 51.455 80.912 51.445C80.672 51.435 80.342 51.43 79.922 51.43C79.472 51.43 79.082 51.45 78.752 51.49C78.422 51.53 78.222 51.55 78.152 51.55C78.042 51.55 77.977 51.545 77.957 51.535C77.907 51.535 77.877 51.53 77.867 51.52V53.02C77.937 53.02 77.992 53.015 78.032 53.005L78.452 52.99L80.222 52.975C80.582 52.975 80.867 52.98 81.077 52.99L82.112 53.005L82.742 52.99C82.862 52.99 82.942 53.02 82.982 53.08C83.022 53.13 83.042 53.205 83.042 53.305L83.027 53.605L83.012 54.655C83.012 54.815 82.977 54.915 82.907 54.955C82.837 54.985 82.737 55 82.607 55C82.477 54.99 82.372 54.985 82.292 54.985C81.862 54.985 81.492 54.98 81.182 54.97L79.652 54.955C79.532 54.955 78.932 54.97 77.852 55L77.282 55.015L77.192 55.03C77.132 55.03 77.097 55.015 77.087 54.985C77.077 54.945 77.072 54.875 77.072 54.775C77.062 54.665 77.057 54.48 77.057 54.22C77.057 54.14 77.052 54.055 77.042 53.965C77.032 53.865 77.027 53.735 77.027 53.575V51.52C77.027 51.32 77.032 51.125 77.042 50.935C77.062 50.745 77.072 50.605 77.072 50.515C77.112 50.055 77.132 49.615 77.132 49.195C77.132 48.675 77.117 48.265 77.087 47.965C77.067 47.625 77.057 47.315 77.057 47.035C77.057 46.405 77.072 45.67 77.102 44.83C77.102 44.7 77.127 44.615 77.177 44.575C77.227 44.525 77.297 44.5 77.387 44.5L77.612 44.515C77.702 44.515 77.847 44.525 78.047 44.545C78.247 44.555 78.492 44.56 78.782 44.56C79.112 44.56 79.502 44.535 79.952 44.485C80.492 44.445 80.852 44.425 81.032 44.425C81.442 44.425 81.817 44.44 82.157 44.47L82.697 44.485C82.827 44.485 82.912 44.515 82.952 44.575C82.992 44.635 83.012 44.745 83.012 44.905C83.012 44.995 83.022 45.15 83.042 45.37C83.062 45.63 83.072 45.855 83.072 46.045Z" fill="black"/>
<path d="M88.0879 44.425C88.9579 44.425 89.6029 44.595 90.0229 44.935C90.4429 45.275 90.6629 45.455 90.6829 45.475C90.7829 45.545 90.8329 45.615 90.8329 45.685C90.8329 45.725 90.8129 45.765 90.7729 45.805C90.7429 45.845 90.6829 45.93 90.5929 46.06C90.5029 46.19 90.4329 46.255 90.3829 46.255C90.3329 46.255 90.2679 46.23 90.1879 46.18L90.0829 46.09C89.3229 45.54 88.6729 45.265 88.1329 45.265C87.4429 45.265 86.9179 45.425 86.5579 45.745C86.2079 46.055 86.0329 46.45 86.0329 46.93C86.0329 47.34 86.1779 47.69 86.4679 47.98C86.7679 48.27 87.1579 48.545 87.6379 48.805C87.7779 48.865 87.9229 48.92 88.0729 48.97C88.5729 49.16 89.0079 49.365 89.3779 49.585C89.7579 49.795 90.0979 50.12 90.3979 50.56C90.6979 50.99 90.8479 51.535 90.8479 52.195C90.8479 53.325 90.4629 54.1 89.6929 54.52C88.9229 54.93 88.0629 55.135 87.1129 55.135C86.5629 55.135 86.0629 55.01 85.6129 54.76C85.1729 54.51 84.8579 54.29 84.6679 54.1C84.5679 54.01 84.5429 53.92 84.5929 53.83C84.6029 53.81 84.6429 53.73 84.7129 53.59C84.7929 53.45 84.8629 53.38 84.9229 53.38H84.9529C84.9829 53.38 85.0079 53.39 85.0279 53.41C85.0579 53.42 85.0879 53.445 85.1179 53.485C85.1579 53.525 85.2029 53.57 85.2529 53.62C85.3829 53.75 85.6379 53.9 86.0179 54.07C86.3979 54.23 86.7129 54.31 86.9629 54.31C87.4929 54.31 87.9979 54.2 88.4779 53.98C88.9579 53.75 89.1979 53.27 89.1979 52.54C89.1979 52.23 89.0579 51.96 88.7779 51.73C88.5079 51.5 88.0829 51.23 87.5029 50.92L86.8579 50.56C86.1579 50.16 85.6079 49.73 85.2079 49.27C84.8179 48.81 84.6229 48.205 84.6229 47.455C84.6229 46.835 84.7979 46.295 85.1479 45.835C85.5079 45.375 85.9529 45.025 86.4829 44.785C87.0229 44.545 87.5579 44.425 88.0879 44.425Z" fill="black"/>
</svg>
